# xmcd
#
# Track frame offsets:
#      150
#      40337
#      50195
#      78940
#      112532
#      138052
#      160817
#      182757
# 
# Disc length: 2627 seconds
#
# Revision: 2
# Processed by: cddbd v1.4PL0 Copyright (c) Steve Scherf et al.
#
# Submitted via: FreeRIP 1.21
#
DISCID=5b0a4108
DTITLE=Petter Wettre Trio - The Mystery Unfolds
DYEAR=2001
DGENRE=Jazz
TTITLE0=Continuous flux
TTITLE1=Bad Hair Day
TTITLE2=Ornette or Not
TTITLE3=Fools of the Trade
TTITLE4=As time goes by Part 2
TTITLE5=Area 51
TTITLE6=Go Baby
TTITLE7=Incoming (karaoke version)
EXTD=
EXTT0=
EXTT1=
EXTT2=
EXTT3=
EXTT4=
EXTT5=
EXTT6=
EXTT7=
PLAYORDER=
